<?xml version="1.0" encoding="UTF-8"?>
<!DOCTYPE svg PUBLIC "-//W3C//DTD SVG 1.1//EN" "http://www.w3.org/Graphics/SVG/1.1/DTD/svg11.dtd">
<!-- Creator: CorelDRAW -->
<svg xmlns="http://www.w3.org/2000/svg" xml:space="preserve" width="110mm" height="110mm" style="shape-rendering:geometricPrecision; text-rendering:geometricPrecision; image-rendering:optimizeQuality; fill-rule:evenodd; clip-rule:evenodd"
viewBox="0 0 110 110"
 xmlns:xlink="http://www.w3.org/1999/xlink">
 <defs>
  <style type="text/css">
   <![CDATA[
    .fil0 {fill:#131313}
    .fil1 {fill:#1F1A17;fill-rule:nonzero}
   ]]>
  </style>
 </defs>
 <g id="Слой_x0020_1">
  <metadata id="CorelCorpID_0Corel-Layer"/>
  <polygon class="fil0" points="46.6274,14.3546 46.4076,14.5744 45.7481,14.7942 45.7481,15.2339 45.0886,15.2339 44.4291,15.4538 44.2092,15.6736 43.9894,15.8934 43.7695,16.1132 43.5497,16.3331 43.3299,16.5529 42.8902,16.7727 42.6704,16.9926 42.4506,17.2124 42.2307,17.4323 42.0108,17.6521 41.5712,17.8719 41.3514,18.0918 40.472,18.3116 40.0323,18.5315 38.9331,18.7513 38.2737,18.9711 37.6141,19.191 37.1745,19.4108 36.7347,19.6306 36.2951,19.8504 36.0753,20.9496 35.8554,21.3893 35.6356,21.6092 35.4158,22.0488 35.1959,22.2687 34.9761,22.7084 34.7562,23.148 34.5364,23.3679 34.3166,23.5877 34.0967,24.0273 33.8769,24.4671 33.8769,30.1828 33.8769,30.4026 33.657,31.0621 33.4372,31.5018 33.2174,33.4803 33.2174,34.3597 33.4372,35.6787 33.657,35.8986 34.0967,35.8986 34.0967,34.5795 34.3376,34.5801 34.0967,37.2175 33.8769,38.3167 33.657,39.1961 33.4372,39.8556 33.2174,40.735 32.9976,41.3944 32.9976,42.7135 33.2174,43.1532 33.4372,43.5928 33.657,44.4721 33.8769,45.1317 34.0967,46.011 34.3166,46.8904 34.5364,47.9896 34.7562,49.3086 34.9761,50.6276 35.1959,52.6061 35.4158,52.8259 35.6356,54.145 35.8554,54.3648 38.7133,54.3648 38.9331,54.145 38.9331,53.4855 38.7133,53.2657 38.2737,53.0458 37.6141,52.8259 37.3943,52.6061 37.1745,52.3863 36.9546,51.7268 36.7347,51.2871 36.5149,50.6276 36.2951,49.5284 36.0753,47.7697 35.8554,45.7912 35.8554,45.5713 36.0753,40.9548 36.2951,40.2953 36.5149,39.8556 36.7347,38.5366 36.7347,37.4374 36.9765,37.438 36.7347,39.8556 36.5149,41.6143 36.5149,42.4936 36.7347,42.9333 36.9546,43.373 37.1745,43.5928 37.3943,44.0325 37.6141,44.4721 37.8339,44.692 38.0538,45.1317 38.2737,45.5713 38.4935,46.2309 38.7133,46.6705 38.9331,47.1102 39.153,47.7697 39.3728,48.2094 39.5926,48.649 39.8125,49.3086 40.0323,49.9681 40.2522,50.4078 40.472,51.0673 40.6918,51.5069 40.9116,51.7268 41.1315,51.9466 41.3514,53.0458 44.4291,53.0458 44.6489,52.8259 44.6489,52.3863 44.4291,51.9466 43.9894,51.7268 42.8902,51.5069 42.6704,51.2871 42.4506,51.0673 42.2307,50.6276 42.0108,50.4078 41.791,50.188 41.5712,49.7482 41.3514,49.0888 41.1315,48.4292 40.9116,47.7697 40.6918,47.1102 40.472,46.4507 40.2522,45.5713 40.0323,44.9119 39.8125,43.373 39.5926,42.054 39.5926,40.0755 39.8125,36.3382 40.0323,35.8986 40.2522,35.4589 40.472,35.0192 40.6918,34.5795 40.9116,34.1398 41.1315,33.4803 41.3514,30.1828 41.791,30.4026 42.0108,30.6225 42.2307,30.8423 42.4506,31.0621 42.6704,31.282 43.11,31.5018 43.3299,31.7217 43.7695,31.9415 43.9894,32.1613 44.4291,32.3811 44.8687,32.601 45.3084,32.8209 45.7481,33.0407 46.6274,33.2605 47.5068,33.4803 48.8258,33.7002 52.7829,33.7002 53.2225,33.7002 55.8606,33.7002 56.0804,33.92 56.0804,34.3597 55.8606,36.558 55.6407,38.9763 55.4209,40.0755 55.201,40.735 55.201,44.692 55.201,47.5499 54.9812,50.188 54.9812,50.8474 55.201,51.2871 55.201,51.9466 54.9812,52.1665 54.9812,52.8259 55.201,53.0458 55.8606,53.2657 56.9597,53.2657 56.9597,54.145 57.6193,54.3648 60.4771,54.3648 61.1366,54.145 61.1366,53.7053 60.9168,53.2657 60.697,53.0458 59.8176,52.8259 59.5978,52.6061 59.3779,52.3863 59.1581,52.1665 58.9383,51.0673 58.7185,50.6276 58.4986,50.188 58.2787,49.0888 58.0589,46.8904 58.0589,46.011 58.2787,44.4721 58.4986,44.0325 58.7185,39.8556 58.9383,37.4374 59.1581,36.558 59.3779,35.6787 59.5978,34.7994 59.8176,33.7002 59.8176,33.0407 60.2573,33.0407 60.4771,32.8209 60.9168,32.601 61.1366,32.3811 61.3565,32.1613 61.5763,31.7217 61.7962,31.5018 62.016,31.5018 62.6755,31.7217 63.5548,31.9415 64.654,32.1613 68.6111,32.1613 69.4904,31.9415 70.15,31.7217 70.5896,31.5018 71.0293,31.282 71.2491,31.0621 71.6888,30.8423 71.9086,30.6225 72.1285,30.4026 72.5681,30.1828 72.788,29.9629 73.0078,29.5233 73.2277,29.3034 73.4475,29.0836 73.6673,28.8638 73.8872,28.644 74.107,28.2042 74.3268,27.7646 74.5466,27.1051 74.7665,26.6654 74.9864,26.2257 75.2062,25.7861 75.2062,25.1265 75.6458,25.1265 75.8657,24.6869 76.0855,23.8075 76.3054,23.5877 76.3054,22.7084 77.4046,22.7084 78.9434,22.4885 79.6029,22.2687 80.0426,22.0488 80.7021,22.0488 81.5814,22.0488 82.241,21.829 82.4608,21.6092 82.4608,20.51 82.241,20.2902 82.0211,19.8504 81.8013,19.6306 81.5814,19.4108 81.3616,19.191 80.9219,18.9711 80.0426,18.7513 79.6029,18.5315 78.2839,18.3116 77.6244,18.0918 77.4046,17.8719 77.1847,17.6521 76.745,17.4323 76.5252,17.2124 75.8657,16.9926 74.107,16.7727 73.4475,16.7727 73.0078,16.9926 72.788,18.0918 72.5681,18.5315 72.3483,18.7513 72.1285,20.0703 71.9086,20.7298 71.9086,21.3893 71.4689,21.3893 71.2491,22.0488 70.8094,22.2687 70.5896,22.4885 70.3698,23.3679 70.15,23.5877 69.9301,24.4671 69.7103,24.9067 69.4904,25.1265 69.2706,25.3464 68.8309,25.5662 68.6111,25.7861 66.1929,25.7861 65.7532,25.5662 65.3135,25.3464 64.8739,25.1265 64.654,24.9067 64.4342,24.6869 64.2143,24.4671 63.7747,24.2472 63.5548,24.0273 63.335,23.8075 63.1152,23.5877 62.8954,23.148 62.6755,22.9282 62.4556,22.7084 62.2358,22.4885 62.016,22.2687 61.7962,22.0488 61.7962,21.829 61.7962,21.3893 61.5763,21.1695 61.3565,20.9496 60.9168,20.9496 60.9168,20.2902 60.697,20.0703 60.4771,19.8504 60.2573,19.6306 60.0375,19.4108 59.5978,19.191 58.9383,18.9711 58.7185,18.7513 56.9597,18.5315 56.3002,18.3116 55.6407,18.0918 55.4209,17.8719 55.201,17.2124 54.7614,17.2124 54.7614,16.3331 54.7614,16.1132 54.7614,15.6736 54.5416,15.4538 54.3217,15.0141 53.882,15.0141 53.6622,15.0141 53.4424,14.7942 53.2225,14.5744 52.7829,14.3546 52.3432,14.3546 51.9035,14.3546 50.1448,14.1347 47.2869,14.1347 "/>
  <path class="fil1" d="M11.113 83.9701l0 -14.3253 9.6658 0 0 1.6911 -7.768 0 0 4.436 6.7207 0 0 1.691 -6.7207 0 0 6.5072 -1.8978 0zm18.6745 -1.2808c-0.6537,0.5537 -1.2807,0.944 -1.8811,1.1741 -0.6037,0.2268 -1.2508,0.3402 -1.9412,0.3402 -1.1407,0 -2.0145,-0.2768 -2.6282,-0.8338 -0.6104,-0.557 -0.9172,-1.2708 -0.9172,-2.1347 0,-0.5103 0.1134,-0.9739 0.3469,-1.3942 0.2301,-0.4202 0.5336,-0.757 0.9071,-1.0105 0.3769,-0.2535 0.7972,-0.447 1.2675,-0.5771 0.3435,-0.09 0.8638,-0.1801 1.5609,-0.2635 1.4208,-0.17 2.4681,-0.3702 3.1385,-0.6069 0.0067,-0.2402 0.0101,-0.3936 0.0101,-0.457 0,-0.7171 -0.1668,-1.2241 -0.5004,-1.5143 -0.4469,-0.4002 -1.1173,-0.5969 -2.0011,-0.5969 -0.8272,0 -1.4375,0.1434 -1.8345,0.4335 -0.3935,0.2902 -0.6837,0.8038 -0.8738,1.5409l-1.7177 -0.2368c0.1568,-0.7338 0.4136,-1.3307 0.7704,-1.781 0.3569,-0.4536 0.8773,-0.8039 1.5543,-1.0473 0.6771,-0.2435 1.4609,-0.3669 2.3547,-0.3669 0.8872,0 1.6043,0.1067 2.158,0.3135 0.5537,0.2102 0.9606,0.4703 1.2241,0.7871 0.2602,0.3169 0.4403,0.7138 0.547,1.1974 0.0567,0.3002 0.0867,0.8405 0.0867,1.621l0 2.3447c0,1.6377 0.0367,2.6717 0.1134,3.1019 0.0733,0.4336 0.2234,0.8505 0.4436,1.2474l-1.8378 0c-0.1801,-0.3636 -0.3002,-0.7905 -0.3502,-1.2808zm-0.1468 -3.929c-0.6403,0.2635 -1.5976,0.4837 -2.8717,0.6671 -0.7237,0.1034 -1.2373,0.2201 -1.5342,0.3502 -0.3002,0.1301 -0.5337,0.3202 -0.6938,0.5737 -0.1634,0.2501 -0.2468,0.527 -0.2468,0.8338 0,0.4703 0.1801,0.8605 0.5337,1.174 0.3535,0.3102 0.8738,0.467 1.5576,0.467 0.677,0 1.2807,-0.1468 1.8077,-0.4436 0.527,-0.2969 0.9172,-0.7038 1.1641,-1.2174 0.1901,-0.3969 0.2834,-0.9839 0.2834,-1.7577l0 -0.6471zm3.8023 2.1113l1.7378 -0.2735c0.0967,0.697 0.3702,1.2307 0.8171,1.6043 0.4436,0.3702 1.0673,0.557 1.8711,0.557 0.8072,0 1.4076,-0.1668 1.7978,-0.4937 0.3902,-0.3302 0.587,-0.717 0.587,-1.1573 0,-0.4003 -0.1734,-0.7104 -0.5203,-0.9406 -0.2401,-0.1567 -0.8405,-0.3535 -1.7977,-0.5936 -1.2875,-0.3269 -2.1847,-0.6071 -2.6816,-0.8473 -0.497,-0.2367 -0.8773,-0.5669 -1.1341,-0.9872 -0.2568,-0.4203 -0.3869,-0.8838 -0.3869,-1.3908 0,-0.4636 0.1068,-0.8906 0.3202,-1.2841 0.2101,-0.397 0.5003,-0.7238 0.8639,-0.984 0.2734,-0.2 0.647,-0.3735 1.1173,-0.5136 0.4736,-0.1401 0.9806,-0.2101 1.5209,-0.2101 0.8138,0 1.5276,0.12 2.1446,0.3535 0.6171,0.2335 1.0706,0.5503 1.3642,0.9506 0.2935,0.4036 0.4936,0.9372 0.6037,1.6076l-1.7177 0.2368c-0.08,-0.5336 -0.3069,-0.9505 -0.6804,-1.2507 -0.3736,-0.3002 -0.9039,-0.4503 -1.5877,-0.4503 -0.8071,0 -1.3841,0.1334 -1.7276,0.4003 -0.3469,0.2668 -0.5203,0.5803 -0.5203,0.9372 0,0.2301 0.0733,0.4336 0.2167,0.617 0.1435,0.1901 0.3669,0.3436 0.6738,0.4703 0.1767,0.0634 0.6937,0.2135 1.5542,0.447 1.2441,0.3335 2.1113,0.6036 2.6016,0.8171 0.4936,0.2101 0.8805,0.5203 1.1607,0.9239 0.2802,0.4036 0.4203,0.9039 0.4203,1.5042 0,0.587 -0.1735,1.1374 -0.5137,1.6577 -0.3435,0.5169 -0.8372,0.9172 -1.4809,1.2007 -0.6437,0.2835 -1.3742,0.4236 -2.188,0.4236 -1.3508,0 -2.378,-0.2802 -3.0851,-0.8405 -0.7071,-0.5604 -1.1574,-1.3909 -1.3509,-2.4915zm14.5488 1.5242l0.2534 1.5543c-0.4936,0.1034 -0.9372,0.1568 -1.3275,0.1568 -0.6403,0 -1.1339,-0.1001 -1.4875,-0.3036 -0.3502,-0.2001 -0.597,-0.4669 -0.7405,-0.7971 -0.1434,-0.3269 -0.2167,-1.0206 -0.2167,-2.0746l0 -5.9702 -1.2908 0 0 -1.3675 1.2908 0 0 -2.5716 1.751 -1.0539 0 3.6255 1.7678 0 0 1.3675 -1.7678 0 0 6.067c0,0.5036 0.03,0.8237 0.0901,0.9672 0.0633,0.1434 0.1634,0.2568 0.3035,0.3436 0.1401,0.0833 0.3402,0.1267 0.6003,0.1267 0.1968,0 0.4536,-0.0234 0.7739,-0.0701zm2.0011 1.5743l0 -14.3253 1.8978 0 0 5.8836 7.4445 0 0 -5.8836 1.8978 0 0 14.3253 -1.8978 0 0 -6.7507 -7.4445 0 0 6.7507 -1.8978 0zm13.5148 -5.1898c0,-1.9211 0.5337,-3.3453 1.6043,-4.2692 0.8905,-0.7671 1.9779,-1.154 3.262,-1.154 1.4275,0 2.5948,0.4669 3.4987,1.4042 0.9072,0.9339 1.3575,2.2246 1.3575,3.8723 0,1.3374 -0.2001,2.3881 -0.6004,3.1519 -0.4002,0.7671 -0.9839,1.3608 -1.7477,1.7843 -0.7671,0.4237 -1.6009,0.6338 -2.5081,0.6338 -1.4509,0 -2.625,-0.4636 -3.5222,-1.3975 -0.8972,-0.9306 -1.3441,-2.2714 -1.3441,-4.0258zm1.8078 0c0,1.3308 0.2901,2.3248 0.8705,2.9852 0.5803,0.6637 1.3108,0.9939 2.188,0.9939 0.8738,0 1.6009,-0.3336 2.1813,-0.9973 0.577,-0.6637 0.8672,-1.6777 0.8672,-3.0384 0,-1.2842 -0.2902,-2.2581 -0.8739,-2.9185 -0.5837,-0.6604 -1.3075,-0.9905 -2.1746,-0.9905 -0.8772,0 -1.6077,0.3301 -2.188,0.9872 -0.5804,0.657 -0.8705,1.651 -0.8705,2.9784zm13.8183 3.6155l0.2534 1.5543c-0.4936,0.1034 -0.9372,0.1568 -1.3274,0.1568 -0.6404,0 -1.134,-0.1001 -1.4876,-0.3036 -0.3502,-0.2001 -0.597,-0.4669 -0.7405,-0.7971 -0.1434,-0.3269 -0.2167,-1.0206 -0.2167,-2.0746l0 -5.9702 -1.2908 0 0 -1.3675 1.2908 0 0 -2.5716 1.751 -1.0539 0 3.6255 1.7678 0 0 1.3675 -1.7678 0 0 6.067c0,0.5036 0.0301,0.8237 0.0901,0.9672 0.0633,0.1434 0.1634,0.2568 0.3035,0.3436 0.1401,0.0833 0.3402,0.1267 0.6004,0.1267 0.1967,0 0.4535,-0.0234 0.7738,-0.0701zm8.8219 -1.7677l1.8177 0.2235c-0.2868,1.064 -0.8171,1.8878 -1.5909,2.4748 -0.7771,0.5837 -1.7678,0.8772 -2.9718,0.8772 -1.5176,0 -2.7216,-0.467 -3.6088,-1.4009 -0.8906,-0.9339 -1.3342,-2.2446 -1.3342,-3.9323 0,-1.7478 0.4503,-3.1019 1.3475,-4.0658 0.9006,-0.9639 2.0646,-1.4475 3.4988,-1.4475 1.3875,0 2.5215,0.4736 3.3987,1.4175 0.8805,0.9439 1.3208,2.2747 1.3208,3.9857 0,0.1068 -0.0033,0.2635 -0.01,0.4703l-7.738 0c0.0634,1.1407 0.3869,2.0146 0.9673,2.6183 0.5803,0.607 1.3007,0.9105 2.1679,0.9105 0.6437,0 1.194,-0.1701 1.651,-0.5103 0.457,-0.3369 0.8172,-0.8772 1.084,-1.621zm-5.7735 -2.845l5.7935 0c-0.0767,-0.8706 -0.3002,-1.5276 -0.6637,-1.9612 -0.5604,-0.6771 -1.2875,-1.0173 -2.178,-1.0173 -0.8072,0 -1.4875,0.2702 -2.0379,0.8105 -0.5503,0.5404 -0.8539,1.2641 -0.9139,2.168zm9.7626 6.187l0 -14.3253 1.7577 0 0 14.3253 -1.7577 0zm3.7822 -3.0985l1.7377 -0.2735c0.0967,0.697 0.3702,1.2307 0.8172,1.6043 0.4436,0.3702 1.0673,0.557 1.8711,0.557 0.8071,0 1.4075,-0.1668 1.7977,-0.4937 0.3903,-0.3302 0.5871,-0.717 0.5871,-1.1573 0,-0.4003 -0.1735,-0.7104 -0.5203,-0.9406 -0.2402,-0.1567 -0.8406,-0.3535 -1.7978,-0.5936 -1.2875,-0.3269 -2.1847,-0.6071 -2.6816,-0.8473 -0.497,-0.2367 -0.8772,-0.5669 -1.134,-0.9872 -0.2568,-0.4203 -0.3869,-0.8838 -0.3869,-1.3908 0,-0.4636 0.1067,-0.8906 0.3202,-1.2841 0.2101,-0.397 0.5003,-0.7238 0.8638,-0.984 0.2735,-0.2 0.6471,-0.3735 1.1174,-0.5136 0.4736,-0.1401 0.9806,-0.2101 1.5209,-0.2101 0.8138,0 1.5276,0.12 2.1446,0.3535 0.617,0.2335 1.0706,0.5503 1.3642,0.9506 0.2935,0.4036 0.4936,0.9372 0.6037,1.6076l-1.7177 0.2368c-0.0801,-0.5336 -0.3069,-0.9505 -0.6805,-1.2507 -0.3735,-0.3002 -0.9039,-0.4503 -1.5876,-0.4503 -0.8071,0 -1.3841,0.1334 -1.7277,0.4003 -0.3469,0.2668 -0.5203,0.5803 -0.5203,0.9372 0,0.2301 0.0734,0.4336 0.2168,0.617 0.1434,0.1901 0.3669,0.3436 0.6737,0.4703 0.1768,0.0634 0.6938,0.2135 1.5543,0.447 1.2441,0.3335 2.1113,0.6036 2.6016,0.8171 0.4936,0.2101 0.8805,0.5203 1.1606,0.9239 0.2802,0.4036 0.4203,0.9039 0.4203,1.5042 0,0.587 -0.1734,1.1374 -0.5136,1.6577 -0.3436,0.5169 -0.8372,0.9172 -1.4809,1.2007 -0.6437,0.2835 -1.3742,0.4236 -2.188,0.4236 -1.3508,0 -2.3781,-0.2802 -3.0852,-0.8405 -0.7071,-0.5604 -1.1574,-1.3909 -1.3508,-2.4915z"/>
 </g>
</svg>
